<svg width="58" height="59" viewBox="0 0 58 59" fill="none" xmlns="http://www.w3.org/2000/svg">
<path d="M28.9999 44.6949C33.0557 44.6949 36.7295 43.0386 39.3862 40.3594C42.0428 37.6825 43.6887 33.9805 43.6887 29.8935C43.6887 25.8066 42.045 22.1046 39.3862 19.4276C36.7296 16.7507 33.0558 15.0921 28.9999 15.0921C24.9419 15.0921 21.2703 16.7485 18.6136 19.4276C15.957 22.1046 14.3111 25.8065 14.3111 29.8935C14.3111 33.9826 15.9548 37.6824 18.6136 40.3594C21.2702 43.0364 24.944 44.6949 28.9999 44.6949ZM32.4292 3.17871L36.4916 6.40339C36.7623 6.61676 37.033 6.77513 37.3124 6.87631C37.6005 6.98189 37.9083 7.03908 38.2402 7.04789L43.4093 7.20846C44.7059 7.24805 45.8891 7.72098 46.8102 8.50186C47.7357 9.28492 48.4038 10.3759 48.6657 11.6518L49.72 16.7527C49.7877 17.0849 49.8968 17.3818 50.0496 17.6458C50.2046 17.9141 50.4054 18.1583 50.6543 18.3848L54.5114 21.8559C55.4763 22.727 56.0831 23.851 56.2927 25.0476C56.5023 26.2442 56.3167 27.509 55.7033 28.6594L53.2563 33.25C53.0991 33.547 52.9921 33.8439 52.9398 34.1452C52.8874 34.4488 52.8852 34.7678 52.9332 35.1021L53.6732 40.2602C53.8566 41.5448 53.6012 42.7986 52.9965 43.8544L52.9485 43.9314C52.3438 44.9477 51.4117 45.7681 50.2417 46.2367L45.4392 48.1702C45.1315 48.2933 44.863 48.4539 44.6272 48.6541C44.3915 48.8543 44.1906 49.0918 44.016 49.3778L41.2939 53.8079C40.6106 54.9187 39.6152 55.7127 38.4801 56.1285C37.3428 56.5464 36.0745 56.5838 34.8477 56.1769L29.9362 54.547C29.6153 54.4414 29.3097 54.3886 29.0041 54.3886C28.7006 54.3886 28.3928 54.4414 28.072 54.547L23.1604 56.1769C21.9358 56.5838 20.6654 56.5464 19.528 56.1285C18.393 55.7127 17.3975 54.9165 16.7143 53.8079L13.9922 49.3778C13.8175 49.0918 13.6145 48.8543 13.3809 48.6541C13.143 48.4539 12.8723 48.2933 12.5689 48.1702L7.76649 46.2367C6.56591 45.7528 5.6163 44.9037 5.01166 43.8501L5.00947 43.8523C4.40482 42.7964 4.14721 41.5426 4.33279 40.2581L5.07279 35.0999C5.12081 34.7633 5.12081 34.4466 5.06624 34.1431C5.01385 33.8417 4.90907 33.5448 4.74971 33.2478L2.30268 28.6572C1.69144 27.509 1.50373 26.242 1.71329 25.0454C1.92285 23.8488 2.52532 22.7248 3.49454 21.8537L7.35171 18.3827C7.60711 18.1539 7.80575 17.9119 7.95636 17.6502L7.95854 17.6458L7.95636 17.6436C8.10698 17.3796 8.21612 17.0849 8.28597 16.7505L9.34031 11.6496C9.60444 10.3716 10.2702 9.28278 11.1958 8.49967C12.1169 7.71881 13.3023 7.24805 14.5967 7.20627L19.7658 7.04569C20.0998 7.0347 20.4054 6.97751 20.6936 6.87412C20.973 6.77074 21.2459 6.61456 21.5144 6.4012L25.5768 3.17651C26.5918 2.36924 27.799 1.96454 29.0061 1.96454C30.2133 1.96454 31.4182 2.36927 32.4354 3.17651L32.4292 3.17871ZM34.909 8.43362L30.8466 5.20893C30.2965 4.7734 29.6482 4.55561 29.0021 4.55561C28.3559 4.55561 27.7076 4.77338 27.1575 5.20893L23.0951 8.43362C22.6193 8.81196 22.1128 9.10011 21.5627 9.30249C21.0236 9.50046 20.4494 9.60604 19.8317 9.62584L14.6626 9.78642C13.9662 9.80841 13.331 10.0614 12.8355 10.4815C12.34 10.8994 11.9842 11.4845 11.8423 12.1752L10.7879 17.2762C10.6635 17.8811 10.4583 18.431 10.1702 18.9347L10.168 18.9325C9.87766 19.4384 9.50874 19.8893 9.0547 20.2985L5.19753 23.7695C4.67582 24.2403 4.35058 24.8429 4.23926 25.4875C4.12793 26.1319 4.22835 26.8117 4.55796 27.4341L7.005 32.0247C7.29751 32.5725 7.49178 33.1267 7.59221 33.6965C7.69044 34.2662 7.69699 34.8513 7.60967 35.4628L6.86968 40.621C6.76926 41.3226 6.9046 41.9979 7.22767 42.561L7.22549 42.5632L7.22767 42.5676C7.54856 43.1307 8.06155 43.5839 8.71202 43.8456L13.5144 45.7791C14.0907 46.01 14.5928 46.307 15.0293 46.6766C15.4703 47.0483 15.8479 47.4948 16.1732 48.0249L18.8953 52.455C19.262 53.0533 19.7968 53.4822 20.4037 53.7044C21.0083 53.9266 21.6938 53.942 22.3595 53.722L27.2711 52.0921C27.854 51.8985 28.428 51.8018 29.0044 51.8018C29.5807 51.8018 30.1547 51.8985 30.7376 52.0921L35.6492 53.722C36.3171 53.9442 37.0026 53.9266 37.605 53.7044C38.2119 53.4823 38.7467 53.0534 39.1134 52.455L41.8355 48.0249C42.1608 47.4948 42.5406 47.0483 42.9794 46.6766C43.4159 46.307 43.918 46.0101 44.4943 45.7791L49.2967 43.8456C49.9254 43.5926 50.4231 43.1571 50.7462 42.6226L50.7789 42.561C51.0998 42.0001 51.2373 41.3248 51.1369 40.6209L50.3969 35.4628C50.3096 34.8513 50.314 34.2662 50.4144 33.6965C50.5148 33.1246 50.7091 32.5724 51.0016 32.0247L53.4486 27.4341C53.7782 26.8138 53.8787 26.1319 53.7673 25.4874C53.656 24.843 53.3307 24.238 52.8091 23.7695L48.9519 20.2985C48.4935 19.8871 48.1245 19.4362 47.8364 18.9347C47.5461 18.4287 47.3431 17.881 47.2186 17.274L46.1643 12.173C46.0224 11.4823 45.6644 10.895 45.1711 10.4793C44.6756 10.0592 44.0404 9.8062 43.344 9.78418L38.1749 9.62361C37.5571 9.60601 36.9852 9.49822 36.4438 9.30026C35.8959 9.10009 35.3895 8.81194 34.9114 8.43139L34.909 8.43362ZM20.0695 30.6347C19.5674 30.1287 19.5674 29.3127 20.0695 28.8068C20.5715 28.3008 21.3814 28.3008 21.8834 28.8068L26.4391 33.3996L36.1202 23.6443C36.6223 23.1384 37.4322 23.1384 37.9342 23.6443C38.4363 24.1502 38.4363 24.9663 37.9342 25.4722L27.3451 36.1425C26.843 36.6484 26.0331 36.6484 25.5311 36.1425L20.0673 30.6369L20.0695 30.6347ZM41.2042 42.1874C38.0804 45.335 33.769 47.2817 29.0017 47.2817C24.2364 47.2817 19.923 45.3351 16.7992 42.1874C13.6755 39.0419 11.7436 34.6952 11.7436 29.8914C11.7436 25.0896 13.6754 20.7431 16.7992 17.5954C19.9229 14.4499 24.2366 12.501 29.0017 12.501C33.7668 12.501 38.0803 14.4477 41.2042 17.5954C44.328 20.7431 46.2598 25.0898 46.2598 29.8914C46.2598 34.6931 44.3279 39.0396 41.2042 42.1874Z" fill="#E8DDDB"/>
</svg>
