<svg width="90" height="18" viewBox="0 0 90 18" fill="none" xmlns="http://www.w3.org/2000/svg">
<path d="M8.09375 1.5625C8.46875 0.8125 9.53125 0.84375 9.875 1.5625L11.9375 5.71875L16.5 6.375C17.3125 6.5 17.625 7.5 17.0312 8.09375L13.75 11.3125L14.5312 15.8438C14.6562 16.6562 13.7812 17.2812 13.0625 16.9062L9 14.75L4.90625 16.9062C4.1875 17.2812 3.3125 16.6562 3.4375 15.8438L4.21875 11.3125L0.9375 8.09375C0.34375 7.5 0.65625 6.5 1.46875 6.375L6.0625 5.71875L8.09375 1.5625ZM26.0938 1.5625C26.4688 0.8125 27.5312 0.84375 27.875 1.5625L29.9375 5.71875L34.5 6.375C35.3125 6.5 35.625 7.5 35.0312 8.09375L31.75 11.3125L32.5312 15.8438C32.6562 16.6562 31.7812 17.2812 31.0625 16.9062L27 14.75L22.9062 16.9062C22.1875 17.2812 21.3125 16.6562 21.4375 15.8438L22.2188 11.3125L18.9375 8.09375C18.3438 7.5 18.6562 6.5 19.4688 6.375L24.0625 5.71875L26.0938 1.5625ZM44.0938 1.5625C44.4688 0.8125 45.5312 0.84375 45.875 1.5625L47.9375 5.71875L52.5 6.375C53.3125 6.5 53.625 7.5 53.0312 8.09375L49.75 11.3125L50.5312 15.8438C50.6562 16.6562 49.7812 17.2812 49.0625 16.9062L45 14.75L40.9062 16.9062C40.1875 17.2812 39.3125 16.6562 39.4375 15.8438L40.2188 11.3125L36.9375 8.09375C36.3438 7.5 36.6562 6.5 37.4688 6.375L42.0625 5.71875L44.0938 1.5625ZM62.0938 1.5625C62.4688 0.8125 63.5312 0.84375 63.875 1.5625L65.9375 5.71875L70.5 6.375C71.3125 6.5 71.625 7.5 71.0312 8.09375L67.75 11.3125L68.5312 15.8438C68.6562 16.6562 67.7812 17.2812 67.0625 16.9062L63 14.75L58.9062 16.9062C58.1875 17.2812 57.3125 16.6562 57.4375 15.8438L58.2188 11.3125L54.9375 8.09375C54.3438 7.5 54.6562 6.5 55.4688 6.375L60.0625 5.71875L62.0938 1.5625ZM80.0938 1.5625C80.4688 0.8125 81.5312 0.84375 81.875 1.5625L83.9375 5.71875L88.5 6.375C89.3125 6.5 89.625 7.5 89.0312 8.09375L85.75 11.3125L86.5312 15.8438C86.6562 16.6562 85.7812 17.2812 85.0625 16.9062L81 14.75L76.9062 16.9062C76.1875 17.2812 75.3125 16.6562 75.4375 15.8438L76.2188 11.3125L72.9375 8.09375C72.3438 7.5 72.6562 6.5 73.4688 6.375L78.0625 5.71875L80.0938 1.5625Z" fill="#F2E416"/>
</svg>
