<svg width="67" height="67" viewBox="0 0 67 67" fill="none" xmlns="http://www.w3.org/2000/svg">
<path d="M36.8283 46.2803L33.4999 26.3215L30.1738 46.2803C27.8838 47.4791 26.3213 49.8792 26.3213 52.6429C26.3213 56.6079 29.5349 59.8215 33.4999 59.8215C37.4648 59.8215 40.6784 56.6079 40.6784 52.6429C40.6784 49.8792 39.1183 47.4791 36.8283 46.2803Z" fill="#1B3A80"/>
<path d="M33.5 7.17859C14.9984 7.17859 0 22.177 0 40.6786C0 45.6055 1.06243 50.2835 2.97193 54.4926C4.27364 53.746 5.71654 53.0449 7.27907 52.3988C5.67586 48.8191 4.78571 44.8541 4.78571 40.6786C4.78571 24.8211 17.6425 11.9643 33.5 11.9643C49.3575 11.9643 62.2143 24.8211 62.2143 40.6786C62.2143 44.8541 61.3241 48.8191 59.7209 52.3988C61.2835 53.0449 62.7264 53.7436 64.0281 54.4926C65.94 50.2835 67 45.6055 67 40.6786C67 22.177 52.0016 7.17859 33.5 7.17859Z" fill="#1B3A80"/>
<path d="M9.15999 51.1521L7.68359 46.6033L16.7884 43.6481L18.2648 48.1994L9.15999 51.1521ZM21.6866 28.5444L16.0634 20.8011L19.9398 17.9871L25.563 25.7328L21.6866 28.5444ZM31.1073 14.3572H35.893V23.9286H31.1073V14.3572ZM16.786 37.8096L7.68359 34.852L9.16477 30.3008L18.2672 33.2584L16.786 37.8096ZM50.2095 37.8072L48.7331 33.256L57.8403 30.3008L59.3167 34.8496L50.2095 37.8072ZM41.4348 25.7304L47.0628 17.9895L50.9369 20.8035L45.3113 28.5468L41.4348 25.7304ZM57.8403 51.1521L48.7355 48.197L50.2118 43.6481L59.3167 46.6033L57.8403 51.1521Z" fill="#1B3A80"/>
</svg>
