<svg width="66" height="69" viewBox="0 0 66 69" fill="none" xmlns="http://www.w3.org/2000/svg">
<path d="M33.0154 2.07623C32.7824 2.07659 32.5553 2.14888 32.3655 2.28311C32.1757 2.41734 32.0327 2.60684 31.9563 2.82537L29.9455 8.56137L23.83 8.68526C23.5976 8.69057 23.3726 8.76733 23.1861 8.90496C22.9995 9.04258 22.8605 9.2343 22.7884 9.45365C22.7162 9.673 22.7143 9.90918 22.7831 10.1296C22.8518 10.3501 22.9878 10.5439 23.1721 10.6844L28.0488 14.3581L26.2793 20.1725C26.213 20.3935 26.2173 20.6295 26.2918 20.848C26.3662 21.0665 26.507 21.2566 26.6949 21.3923C26.8827 21.528 27.1083 21.6025 27.3406 21.6055C27.5729 21.6086 27.8004 21.5401 27.9918 21.4094L33.0154 17.9404L38.0346 21.4094C38.2259 21.5417 38.454 21.6116 38.6872 21.6094C38.9204 21.6072 39.1472 21.5329 39.3359 21.3969C39.5247 21.2609 39.6661 21.07 39.7406 20.8506C39.815 20.6311 39.8189 20.3942 39.7515 20.1725L37.9819 14.3581L42.8586 10.6844C43.043 10.5439 43.1789 10.3501 43.2477 10.1296C43.3164 9.90918 43.3146 9.673 43.2424 9.45365C43.1702 9.2343 43.0313 9.04258 42.8447 8.90496C42.6581 8.76733 42.4331 8.69057 42.2008 8.68526L36.0852 8.56137L34.0745 2.82537C33.998 2.60684 33.855 2.41734 33.6653 2.28311C33.4755 2.14888 33.2484 2.07659 33.0154 2.07623ZM33.0154 6.58186L34.2192 10.0247C34.2944 10.2398 34.434 10.4269 34.6195 10.5608C34.8049 10.6947 35.0271 10.7691 35.2564 10.7739L38.9248 10.8502L36.0019 13.0496C35.8192 13.1871 35.6832 13.3768 35.6122 13.5932C35.5413 13.8097 35.5388 14.0425 35.605 14.2604L36.6663 17.7447L33.6579 15.665C33.4694 15.5345 33.2452 15.4645 33.0154 15.4645C32.7856 15.4645 32.5614 15.5345 32.3729 15.665L29.3645 17.7447L30.4257 14.2604C30.492 14.0425 30.4895 13.8097 30.4185 13.5932C30.3476 13.3768 30.2116 13.1871 30.0289 13.0496L27.1059 10.8502L30.7722 10.7739C31.0014 10.7691 31.2237 10.6947 31.4091 10.5608C31.5945 10.4269 31.7342 10.2398 31.8094 10.0247L33.0154 6.58186ZM10.2591 10.2991C10.0272 10.2994 9.80108 10.3718 9.61212 10.5064C9.42315 10.6411 9.28066 10.8312 9.20437 11.0504L7.51376 15.9197L2.36739 16.0263C2.13555 16.0314 1.911 16.1084 1.72485 16.2469C1.53869 16.3854 1.40013 16.5784 1.32835 16.7992C1.25657 17.02 1.25513 17.2576 1.32421 17.4793C1.3933 17.7009 1.52949 17.8956 1.71395 18.0363L5.81438 21.1526L4.32551 26.0828C4.25773 26.3055 4.26092 26.5437 4.33464 26.7644C4.40836 26.9852 4.54894 27.1774 4.73683 27.3144C4.92472 27.4514 5.15058 27.5264 5.383 27.5289C5.61542 27.5314 5.84285 27.4614 6.03366 27.3285L10.2591 24.3821L14.4845 27.3285C14.6753 27.4614 14.9027 27.5314 15.1352 27.5289C15.3676 27.5264 15.5934 27.4514 15.7813 27.3144C15.9692 27.1774 16.1098 26.9852 16.1835 26.7644C16.2572 26.5437 16.2604 26.3055 16.1926 26.0828L14.7038 21.1526L18.8042 18.0363C18.9887 17.8956 19.1249 17.7009 19.1939 17.4793C19.263 17.2576 19.2616 17.02 19.1898 16.7992C19.118 16.5784 18.9795 16.3854 18.7933 16.2469C18.6071 16.1084 18.3826 16.0314 18.1508 16.0263L13.0044 15.9197L11.3138 11.0504C11.2375 10.8312 11.095 10.6411 10.906 10.5064C10.7171 10.3718 10.491 10.2994 10.2591 10.2991ZM55.741 10.3076C55.5093 10.3076 55.2835 10.3798 55.0945 10.514C54.9056 10.6482 54.7629 10.8378 54.6863 11.0567L52.9957 15.9259L47.8493 16.0326C47.6175 16.0376 47.3929 16.1147 47.2068 16.2531C47.0206 16.3916 46.882 16.5846 46.8103 16.8054C46.7385 17.0262 46.737 17.2639 46.8061 17.4855C46.8752 17.7072 47.0114 17.9019 47.1959 18.0426L51.2963 21.1588L49.8074 26.0891C49.7396 26.3117 49.7428 26.5499 49.8165 26.7707C49.8903 26.9914 50.0308 27.1836 50.2187 27.3207C50.4066 27.4577 50.6325 27.5326 50.8649 27.5352C51.0973 27.5377 51.3248 27.4676 51.5156 27.3347L55.741 24.3883L59.9664 27.3347C60.1572 27.4676 60.3846 27.5377 60.6171 27.5352C60.8495 27.5326 61.0753 27.4577 61.2632 27.3206C61.4511 27.1836 61.5917 26.9914 61.6654 26.7707C61.7391 26.5499 61.7423 26.3117 61.6745 26.0891L60.1857 21.1588L64.2861 18.0426C64.4706 17.9019 64.6068 17.7072 64.6758 17.4855C64.7449 17.2639 64.7435 17.0262 64.6717 16.8054C64.5999 16.5846 64.4614 16.3916 64.2752 16.2531C64.089 16.1147 63.8645 16.0376 63.6327 16.0326L58.4863 15.9259L56.7957 11.0567C56.719 10.8378 56.5764 10.6482 56.3874 10.514C56.1985 10.3798 55.9726 10.3076 55.741 10.3076ZM10.2591 14.8284L11.1471 17.3916C11.2218 17.6077 11.3608 17.7959 11.5455 17.9306C11.7301 18.0653 11.9515 18.1401 12.1799 18.145L14.888 18.2015L12.7325 19.8369C12.5504 19.9751 12.4149 20.1659 12.3443 20.3835C12.2738 20.6012 12.2715 20.8353 12.3378 21.0542L13.1206 23.6522L10.8972 22.1017C10.7098 21.9714 10.4872 21.9015 10.2591 21.9015C10.031 21.9015 9.80831 21.9714 9.62099 22.1017L7.39754 23.6522L8.18036 21.0542C8.24668 20.8353 8.2444 20.6012 8.17383 20.3835C8.10326 20.1659 7.96779 19.9751 7.78565 19.8369L5.63019 18.2015L8.33823 18.145C8.56663 18.1401 8.78805 18.0653 8.97269 17.9306C9.15734 17.7959 9.29634 17.6077 9.37101 17.3916L10.2591 14.8284ZM55.741 14.8326L56.629 17.3958C56.7037 17.612 56.8427 17.8001 57.0274 17.9348C57.212 18.0695 57.4334 18.1443 57.6618 18.1492L60.3699 18.2057L58.2144 19.8433C58.0327 19.9813 57.8975 20.1718 57.8269 20.389C57.7564 20.6062 57.7538 20.8398 57.8197 21.0585L58.6025 23.6564L56.3791 22.1059C56.1917 21.9756 55.9691 21.9057 55.741 21.9057C55.5129 21.9057 55.2902 21.9756 55.1029 22.1059L52.8794 23.6564L53.6623 21.0585C53.7281 20.8398 53.7256 20.6062 53.655 20.389C53.5845 20.1718 53.4493 19.9813 53.2675 19.8433L51.1121 18.2057L53.8201 18.1492C54.0485 18.1443 54.2699 18.0695 54.4546 17.9348C54.6392 17.8001 54.7782 17.612 54.8529 17.3958L55.741 14.8326ZM31.7019 25.7559C20.3211 25.7559 11.0726 34.9443 11.0726 46.25C11.0726 52.0639 13.5191 57.317 17.4425 61.0494C17.4773 61.0875 17.5146 61.1231 17.5543 61.156C21.2492 64.6189 26.2295 66.744 31.7019 66.744C37.1567 66.744 42.1213 64.6318 45.8144 61.1887C45.9012 61.1273 45.9787 61.0539 46.0447 60.9708C49.9223 57.2434 52.3378 52.0231 52.3378 46.2498C52.3378 34.9441 43.0827 25.7559 31.7019 25.7559ZM31.7019 27.9858C41.8688 27.9858 50.0903 36.149 50.0903 46.25C50.0903 50.8164 48.4113 54.9867 45.6302 58.1858C43.9817 54.2141 40.6358 51.119 36.4843 49.7538C38.7494 48.238 40.2449 45.6808 40.2449 42.7852C40.2449 38.1418 36.3998 34.3577 31.7019 34.3577C27.004 34.3577 23.1656 38.1418 23.1656 42.7852C23.1656 45.6808 24.6569 48.238 26.9195 49.7538C22.7694 51.1193 19.4275 54.2153 17.7802 58.188C14.9993 54.9884 13.3201 50.8179 13.3201 46.25C13.3201 36.149 21.535 27.9858 31.7019 27.9858ZM31.7019 36.5876C35.1958 36.5876 37.9995 39.3563 37.9995 42.7852C37.9995 46.2142 35.1958 48.9742 31.7019 48.9742C28.2081 48.9742 25.4109 46.2142 25.4109 42.7852C25.4109 39.3563 28.2081 36.5876 31.7019 36.5876ZM31.7019 51.2216C37.4325 51.2216 42.2325 54.8726 43.8848 59.9366C40.6418 62.7855 36.3789 64.5141 31.7019 64.5141C27.0268 64.5141 22.7641 62.7878 19.5234 59.941C21.1737 54.8745 25.9696 51.2216 31.7019 51.2216Z" fill="#E8DDDB"/>
</svg>
